<mxfile host="65bd71144e">
    <diagram id="c3nH3A9ih5g9J4n54_TT" name="Page-1">
        <mxGraphModel dx="3231" dy="684" grid="1" gridSize="10" guides="1" tooltips="1" connect="1" arrows="1" fold="1" page="1" pageScale="1" pageWidth="827" pageHeight="1169" math="0" shadow="0">
            <root>
                <mxCell id="0"/>
                <mxCell id="1" parent="0"/>
                <mxCell id="18" style="edgeStyle=none;html=1;exitX=1;exitY=0.75;exitDx=0;exitDy=0;fontSize=12;entryX=0.333;entryY=0.054;entryDx=0;entryDy=0;entryPerimeter=0;" edge="1" parent="1" source="5" target="14">
                    <mxGeometry relative="1" as="geometry">
                        <mxPoint x="-360" y="150" as="targetPoint"/>
                        <Array as="points">
                            <mxPoint x="-371" y="160"/>
                        </Array>
                    </mxGeometry>
                </mxCell>
                <mxCell id="5" value="&lt;div style=&quot;text-align: left&quot;&gt;&lt;span&gt;userName: String&lt;/span&gt;&lt;/div&gt;&lt;div style=&quot;text-align: left&quot;&gt;&lt;span&gt;password: String&lt;/span&gt;&lt;/div&gt;&lt;div&gt;&lt;/div&gt;" style="whiteSpace=wrap;html=1;aspect=fixed;align=center;" vertex="1" parent="1">
                    <mxGeometry x="-530" y="60" width="120" height="120" as="geometry"/>
                </mxCell>
                <mxCell id="6" value="&lt;b&gt;&lt;font style=&quot;font-size: 12px&quot;&gt;ActiveUser&lt;/font&gt;&lt;/b&gt;" style="rounded=1;whiteSpace=wrap;html=1;" vertex="1" parent="1">
                    <mxGeometry x="-530" y="20" width="120" height="40" as="geometry"/>
                </mxCell>
                <mxCell id="8" value="" style="shape=umlActor;verticalLabelPosition=bottom;verticalAlign=top;html=1;outlineConnect=0;fontSize=12;" vertex="1" parent="1">
                    <mxGeometry x="-520" y="30" width="10" height="20" as="geometry"/>
                </mxCell>
                <mxCell id="15" style="edgeStyle=none;html=1;exitX=0.5;exitY=1;exitDx=0;exitDy=0;fontSize=12;" edge="1" parent="1" source="12" target="14">
                    <mxGeometry relative="1" as="geometry">
                        <Array as="points">
                            <mxPoint x="-320" y="150"/>
                        </Array>
                    </mxGeometry>
                </mxCell>
                <mxCell id="12" value="&lt;div style=&quot;text-align: left&quot;&gt;&lt;span&gt;userName:String&lt;/span&gt;&lt;/div&gt;&lt;div style=&quot;text-align: left&quot;&gt;&lt;span&gt;password:String&lt;/span&gt;&lt;/div&gt;&lt;div style=&quot;text-align: left&quot;&gt;&lt;span&gt;email:String&lt;/span&gt;&lt;/div&gt;" style="whiteSpace=wrap;html=1;aspect=fixed;fontSize=12;" vertex="1" parent="1">
                    <mxGeometry x="-260" y="50" width="120" height="120" as="geometry"/>
                </mxCell>
                <mxCell id="13" value="New User Member" style="rounded=1;whiteSpace=wrap;html=1;fontSize=12;" vertex="1" parent="1">
                    <mxGeometry x="-260" y="10" width="120" height="40" as="geometry"/>
                </mxCell>
                <mxCell id="14" value="db UserTable" style="shape=cylinder3;whiteSpace=wrap;html=1;boundedLbl=1;backgroundOutline=1;size=15;fontSize=12;" vertex="1" parent="1">
                    <mxGeometry x="-380" y="210" width="60" height="80" as="geometry"/>
                </mxCell>
                <mxCell id="19" value="&lt;div style=&quot;text-align: justify&quot;&gt;&lt;span&gt;otobusFirmasi:String&lt;/span&gt;&lt;/div&gt;&lt;div style=&quot;text-align: justify&quot;&gt;&lt;span&gt;kalkisSaati:String&lt;/span&gt;&lt;/div&gt;&lt;div style=&quot;text-align: justify&quot;&gt;&lt;span&gt;Ucret:Float&lt;/span&gt;&lt;/div&gt;" style="whiteSpace=wrap;html=1;aspect=fixed;fontSize=12;align=center;direction=south;" vertex="1" parent="1">
                    <mxGeometry x="-90" y="50" width="130" height="130" as="geometry"/>
                </mxCell>
                <mxCell id="24" style="edgeStyle=none;html=1;exitX=1;exitY=0.25;exitDx=0;exitDy=0;entryX=0.5;entryY=1;entryDx=0;entryDy=0;fontSize=12;" edge="1" parent="1" source="20" target="21">
                    <mxGeometry relative="1" as="geometry"/>
                </mxCell>
                <mxCell id="20" value="BiletAlma" style="rounded=0;whiteSpace=wrap;html=1;fontSize=12;" vertex="1" parent="1">
                    <mxGeometry x="-90" y="10" width="130" height="40" as="geometry"/>
                </mxCell>
                <mxCell id="26" style="edgeStyle=none;html=1;exitX=1;exitY=0.5;exitDx=0;exitDy=0;entryX=1;entryY=0.5;entryDx=0;entryDy=0;entryPerimeter=0;fontSize=12;" edge="1" parent="1" source="21" target="25">
                    <mxGeometry relative="1" as="geometry">
                        <Array as="points">
                            <mxPoint x="160" y="270"/>
                        </Array>
                    </mxGeometry>
                </mxCell>
                <mxCell id="21" value="&lt;div style=&quot;text-align: justify&quot;&gt;Detay:BiletAlma&lt;/div&gt;&lt;div style=&quot;text-align: justify&quot;&gt;positions:boolean[]&lt;/div&gt;" style="whiteSpace=wrap;html=1;aspect=fixed;fontSize=12;align=center;direction=south;" vertex="1" parent="1">
                    <mxGeometry x="110" y="70" width="130" height="130" as="geometry"/>
                </mxCell>
                <mxCell id="22" value="Koltuklar" style="rounded=0;whiteSpace=wrap;html=1;fontSize=12;" vertex="1" parent="1">
                    <mxGeometry x="110" y="30" width="130" height="40" as="geometry"/>
                </mxCell>
                <mxCell id="27" style="edgeStyle=none;html=1;exitX=0.5;exitY=1;exitDx=0;exitDy=0;entryX=0;entryY=0.5;entryDx=0;entryDy=0;entryPerimeter=0;fontSize=12;" edge="1" parent="1" source="23" target="25">
                    <mxGeometry relative="1" as="geometry">
                        <Array as="points">
                            <mxPoint y="280"/>
                        </Array>
                    </mxGeometry>
                </mxCell>
                <mxCell id="23" value="note: kalkisSaati ve otobusFirmasi composit unique key olmalÄ±" style="rounded=0;whiteSpace=wrap;html=1;fontSize=12;" vertex="1" parent="1">
                    <mxGeometry x="-90" y="180" width="130" height="60" as="geometry"/>
                </mxCell>
                <mxCell id="25" value="fetchData" style="shape=cylinder3;whiteSpace=wrap;html=1;boundedLbl=1;backgroundOutline=1;size=15;fontSize=12;" vertex="1" parent="1">
                    <mxGeometry x="50" y="260" width="60" height="80" as="geometry"/>
                </mxCell>
                <mxCell id="35" style="edgeStyle=none;html=1;exitX=1;exitY=0.5;exitDx=0;exitDy=0;entryX=1;entryY=0.5;entryDx=0;entryDy=0;fontSize=12;startArrow=none;" edge="1" parent="1" source="37" target="34">
                    <mxGeometry relative="1" as="geometry">
                        <Array as="points"/>
                    </mxGeometry>
                </mxCell>
                <mxCell id="36" style="edgeStyle=none;html=1;exitX=0;exitY=0.5;exitDx=0;exitDy=0;entryX=0;entryY=0.5;entryDx=0;entryDy=0;fontSize=12;" edge="1" parent="1" source="28" target="34">
                    <mxGeometry relative="1" as="geometry">
                        <Array as="points">
                            <mxPoint x="-550" y="450"/>
                            <mxPoint x="-540" y="500"/>
                        </Array>
                    </mxGeometry>
                </mxCell>
                <mxCell id="28" value="&lt;div style=&quot;text-align: justify&quot;&gt;KartNumarasi:Number&lt;/div&gt;&lt;div style=&quot;text-align: justify&quot;&gt;Cvv:Number&lt;/div&gt;&lt;div style=&quot;text-align: justify&quot;&gt;SonKullanma: Date&lt;/div&gt;" style="whiteSpace=wrap;html=1;aspect=fixed;fontSize=12;align=center;" vertex="1" parent="1">
                    <mxGeometry x="-530" y="340" width="130" height="130" as="geometry"/>
                </mxCell>
                <mxCell id="29" value="odeme" style="rounded=1;whiteSpace=wrap;html=1;fontSize=12;" vertex="1" parent="1">
                    <mxGeometry x="-530" y="300" width="130" height="40" as="geometry"/>
                </mxCell>
                <mxCell id="46" style="edgeStyle=none;html=1;exitX=0.5;exitY=1;exitDx=0;exitDy=0;fontSize=12;" edge="1" parent="1" source="30" target="45">
                    <mxGeometry relative="1" as="geometry"/>
                </mxCell>
                <mxCell id="30" value="&lt;div style=&quot;text-align: left&quot;&gt;email:String&lt;/div&gt;&lt;div style=&quot;text-align: left&quot;&gt;Tel:Number&lt;/div&gt;" style="whiteSpace=wrap;html=1;aspect=fixed;fontSize=12;" vertex="1" parent="1">
                    <mxGeometry x="-310" y="340" width="120" height="120" as="geometry"/>
                </mxCell>
                <mxCell id="31" value="iletisim" style="rounded=1;whiteSpace=wrap;html=1;fontSize=12;" vertex="1" parent="1">
                    <mxGeometry x="-310" y="300" width="120" height="40" as="geometry"/>
                </mxCell>
                <mxCell id="47" style="edgeStyle=none;html=1;exitX=0.5;exitY=1;exitDx=0;exitDy=0;entryX=1;entryY=0.5;entryDx=0;entryDy=0;entryPerimeter=0;fontSize=12;" edge="1" parent="1" source="32" target="45">
                    <mxGeometry relative="1" as="geometry">
                        <Array as="points">
                            <mxPoint x="-40" y="490"/>
                            <mxPoint x="-60" y="550"/>
                            <mxPoint x="-120" y="575"/>
                        </Array>
                    </mxGeometry>
                </mxCell>
                <mxCell id="32" value="&lt;div style=&quot;text-align: left&quot;&gt;kalkis:Date&lt;/div&gt;&lt;div style=&quot;text-align: left&quot;&gt;Varis:Date&lt;/div&gt;&lt;div style=&quot;text-align: left&quot;&gt;KoltukNo:Number&lt;/div&gt;" style="whiteSpace=wrap;html=1;aspect=fixed;fontSize=12;" vertex="1" parent="1">
                    <mxGeometry x="-136" y="340" width="120" height="120" as="geometry"/>
                </mxCell>
                <mxCell id="33" value="YolcuBilgileri" style="rounded=1;whiteSpace=wrap;html=1;fontSize=12;" vertex="1" parent="1">
                    <mxGeometry x="-136" y="300" width="120" height="40" as="geometry"/>
                </mxCell>
                <mxCell id="41" style="edgeStyle=none;html=1;exitX=0.5;exitY=1;exitDx=0;exitDy=0;entryX=0.5;entryY=0;entryDx=0;entryDy=0;entryPerimeter=0;fontSize=12;" edge="1" parent="1" source="34" target="40">
                    <mxGeometry relative="1" as="geometry"/>
                </mxCell>
                <mxCell id="43" style="edgeStyle=none;html=1;exitX=1;exitY=1;exitDx=0;exitDy=0;fontSize=12;" edge="1" parent="1" source="34" target="34">
                    <mxGeometry relative="1" as="geometry">
                        <mxPoint x="-340" y="650" as="targetPoint"/>
                        <Array as="points">
                            <mxPoint x="-390" y="600"/>
                            <mxPoint x="-370" y="590"/>
                            <mxPoint x="-370" y="578"/>
                        </Array>
                    </mxGeometry>
                </mxCell>
                <mxCell id="34" value="Ã¶deme Ä°Ålemi" style="rhombus;whiteSpace=wrap;html=1;fontSize=12;" vertex="1" parent="1">
                    <mxGeometry x="-500" y="510" width="100" height="90" as="geometry"/>
                </mxCell>
                <mxCell id="37" value="true" style="rounded=1;whiteSpace=wrap;html=1;fontSize=12;" vertex="1" parent="1">
                    <mxGeometry x="-410" y="480" width="70" height="30" as="geometry"/>
                </mxCell>
                <mxCell id="38" value="" style="edgeStyle=none;html=1;exitX=1;exitY=0.5;exitDx=0;exitDy=0;entryX=1;entryY=0.5;entryDx=0;entryDy=0;fontSize=12;endArrow=none;" edge="1" parent="1" source="28" target="37">
                    <mxGeometry relative="1" as="geometry">
                        <mxPoint x="-400" y="405" as="sourcePoint"/>
                        <mxPoint x="-420" y="550" as="targetPoint"/>
                        <Array as="points">
                            <mxPoint x="-350" y="460"/>
                        </Array>
                    </mxGeometry>
                </mxCell>
                <mxCell id="39" value="false" style="rounded=1;whiteSpace=wrap;html=1;fontSize=12;" vertex="1" parent="1">
                    <mxGeometry x="-550" y="490" width="70" height="30" as="geometry"/>
                </mxCell>
                <mxCell id="40" value="save in db&lt;br&gt;" style="shape=cylinder3;whiteSpace=wrap;html=1;boundedLbl=1;backgroundOutline=1;size=15;fontSize=12;" vertex="1" parent="1">
                    <mxGeometry x="-480" y="660" width="60" height="80" as="geometry"/>
                </mxCell>
                <mxCell id="42" value="Ä°Ålem BaÅarlÄ±ysa" style="rounded=1;whiteSpace=wrap;html=1;fontSize=12;" vertex="1" parent="1">
                    <mxGeometry x="-450" y="610" width="80" height="30" as="geometry"/>
                </mxCell>
                <mxCell id="44" value="Ä°Ålem BaÅarsÄ±zsa" style="rounded=0;whiteSpace=wrap;html=1;fontSize=12;" vertex="1" parent="1">
                    <mxGeometry x="-370" y="570" width="80" height="30" as="geometry"/>
                </mxCell>
                <mxCell id="45" value="save Data" style="shape=cylinder3;whiteSpace=wrap;html=1;boundedLbl=1;backgroundOutline=1;size=15;fontSize=12;" vertex="1" parent="1">
                    <mxGeometry x="-250" y="535" width="60" height="80" as="geometry"/>
                </mxCell>
                <mxCell id="52" style="edgeStyle=none;html=1;exitX=0.5;exitY=1;exitDx=0;exitDy=0;fontSize=12;" edge="1" parent="1" source="49" target="51">
                    <mxGeometry relative="1" as="geometry"/>
                </mxCell>
                <mxCell id="49" value="&lt;div style=&quot;text-align: left&quot;&gt;OtubusFirmasi:String&lt;/div&gt;&lt;div style=&quot;text-align: left&quot;&gt;YolculukTarihi:Date&lt;/div&gt;&lt;div style=&quot;text-align: left&quot;&gt;KoltukNo:Number&lt;/div&gt;&lt;div style=&quot;text-align: left&quot;&gt;BiletDurumu:Boolean&lt;/div&gt;" style="whiteSpace=wrap;html=1;aspect=fixed;fontSize=12;" vertex="1" parent="1">
                    <mxGeometry x="80" y="400" width="120" height="120" as="geometry"/>
                </mxCell>
                <mxCell id="50" value="seyahatlarim" style="rounded=1;whiteSpace=wrap;html=1;fontSize=12;" vertex="1" parent="1">
                    <mxGeometry x="80" y="360" width="120" height="40" as="geometry"/>
                </mxCell>
                <mxCell id="51" value="fecthData" style="shape=cylinder3;whiteSpace=wrap;html=1;boundedLbl=1;backgroundOutline=1;size=15;fontSize=12;" vertex="1" parent="1">
                    <mxGeometry x="100" y="580" width="60" height="80" as="geometry"/>
                </mxCell>
                <mxCell id="54" value="Text" style="text;html=1;align=center;verticalAlign=middle;resizable=0;points=[];autosize=1;strokeColor=none;fillColor=none;fontSize=12;" vertex="1" parent="1">
                    <mxGeometry x="160" y="260" width="40" height="20" as="geometry"/>
                </mxCell>
            </root>
        </mxGraphModel>
    </diagram>
</mxfile>